<svg width="1414" height="598" viewBox="0 0 1414 598" fill="none" xmlns="http://www.w3.org/2000/svg">
<path d="M1395.5 574.6C1395.5 570.1 1399.2 566.4 1403.7 566.4C1408.2 566.4 1411.9 570.1 1411.9 574.6C1411.9 579.1 1408.2 582.8 1403.7 582.8C1399.1 582.8 1395.5 579.1 1395.5 574.6Z" fill="#231F20"/>
<path d="M1349.6 574.6C1349.6 573.3 1350.7 572.2 1352 572.2C1353.3 572.2 1354.4 573.3 1354.4 574.6C1354.4 575.9 1353.3 577 1352 577C1350.7 577 1349.6 575.9 1349.6 574.6Z" fill="#231F20"/>
<path d="M1290.6 574.6C1290.6 569.2 1295 564.8 1300.4 564.8C1305.8 564.8 1310.2 569.2 1310.2 574.6C1310.2 580 1305.8 584.4 1300.4 584.4C1295 584.3 1290.6 580 1290.6 574.6Z" fill="#231F20"/>
<path d="M1244 574.6C1244 572 1246.1 569.8 1248.8 569.8C1251.4 569.8 1253.6 571.9 1253.6 574.6C1253.6 577.2 1251.5 579.4 1248.8 579.4C1246.1 579.3 1244 577.2 1244 574.6Z" fill="#231F20"/>
<path d="M1194.8 574.6C1194.8 573.3 1195.8 572.3 1197.1 572.3C1198.4 572.3 1199.4 573.3 1199.4 574.6C1199.4 575.9 1198.4 576.9 1197.1 576.9C1195.9 576.9 1194.8 575.8 1194.8 574.6Z" fill="#231F20"/>
<path d="M1136.2 574.6C1136.2 569.5 1140.3 565.4 1145.4 565.4C1150.5 565.4 1154.6 569.5 1154.6 574.6C1154.6 579.7 1150.5 583.8 1145.4 583.8C1140.4 583.8 1136.2 579.7 1136.2 574.6Z" fill="#231F20"/>
<path d="M1089.6 574.6C1089.6 572.2 1091.5 570.3 1093.9 570.3C1096.3 570.3 1098.2 572.2 1098.2 574.6C1098.2 577 1096.3 578.9 1093.9 578.9C1091.5 578.8 1089.6 576.9 1089.6 574.6Z" fill="#231F20"/>
<path d="M1041 574.6C1041 574 1041.5 573.4 1042.2 573.4C1042.8 573.4 1043.4 573.9 1043.4 574.6C1043.4 575.2 1042.9 575.8 1042.2 575.8C1041.6 575.8 1041 575.2 1041 574.6Z" fill="#231F20"/>
<path d="M986.8 574.6C986.8 572.5 988.5 570.8 990.6 570.8C992.7 570.8 994.4 572.5 994.4 574.6C994.4 576.7 992.7 578.4 990.6 578.4C988.5 578.4 986.8 576.7 986.8 574.6Z" fill="#231F20"/>
<path d="M937.5 574.6C937.5 573.8 938.1 573.2 938.9 573.2C939.7 573.2 940.3 573.8 940.3 574.6C940.3 575.4 939.7 576 938.9 576C938.1 576 937.5 575.4 937.5 574.6Z" fill="#231F20"/>
<path d="M881.1 574.6C881.1 571.2 883.9 568.4 887.3 568.4C890.7 568.4 893.5 571.2 893.5 574.6C893.5 578 890.7 580.8 887.3 580.8C883.9 580.8 881.1 578 881.1 574.6Z" fill="#231F20"/>
<path d="M834 574.6C834 573.7 834.8 572.9 835.7 572.9C836.6 572.9 837.4 573.7 837.4 574.6C837.4 575.5 836.6 576.3 835.7 576.3C834.7 576.3 834 575.5 834 574.6Z" fill="#231F20"/>
<path d="M775 574.6C775 569.6 779 565.6 784 565.6C789 565.6 793 569.6 793 574.6C793 579.6 789 583.6 784 583.6C779 583.6 775 579.6 775 574.6Z" fill="#231F20"/>
<path d="M726.1 574.6C726.1 571.1 728.9 568.3 732.4 568.3C735.9 568.3 738.7 571.1 738.7 574.6C738.7 578.1 735.9 580.9 732.4 580.9C728.9 580.8 726.1 578 726.1 574.6Z" fill="#231F20"/>
<path d="M676.8 574.6C676.8 572.4 678.6 570.6 680.8 570.6C683 570.6 684.8 572.4 684.8 574.6C684.8 576.8 683 578.6 680.8 578.6C678.6 578.6 676.8 576.8 676.8 574.6Z" fill="#231F20"/>
<path d="M621.7 574.6C621.7 570.5 625 567.2 629.1 567.2C633.2 567.2 636.5 570.5 636.5 574.6C636.5 578.7 633.2 582 629.1 582C625.1 582 621.7 578.7 621.7 574.6Z" fill="#231F20"/>
<path d="M574.7 574.6C574.7 573.1 575.9 571.8 577.5 571.8C579 571.8 580.3 573 580.3 574.6C580.3 576.1 579.1 577.4 577.5 577.4C576 577.4 574.7 576.1 574.7 574.6Z" fill="#231F20"/>
<path d="M518.7 574.6C518.7 570.6 521.9 567.4 525.9 567.4C529.9 567.4 533.1 570.6 533.1 574.6C533.1 578.6 529.9 581.8 525.9 581.8C521.9 581.8 518.7 578.6 518.7 574.6Z" fill="#231F20"/>
<path d="M469.1 574.6C469.1 571.8 471.4 569.5 474.2 569.5C477 569.5 479.3 571.8 479.3 574.6C479.3 577.4 477 579.7 474.2 579.7C471.4 579.7 469.1 577.4 469.1 574.6Z" fill="#231F20"/>
<path d="M413.1 574.6C413.1 569.4 417.4 565.1 422.6 565.1C427.9 565.1 432.1 569.4 432.1 574.6C432.1 579.8 427.9 584.1 422.6 584.1C417.3 584.1 413.1 579.8 413.1 574.6Z" fill="#231F20"/>
<path d="M367.5 574.6C367.5 572.7 369.1 571.1 371 571.1C372.9 571.1 374.5 572.7 374.5 574.6C374.5 576.5 372.9 578.1 371 578.1C369 578.1 367.5 576.5 367.5 574.6Z" fill="#231F20"/>
<path d="M309.9 574.6C309.9 569.4 314.1 565.2 319.3 565.2C324.5 565.2 328.7 569.4 328.7 574.6C328.7 579.8 324.5 584 319.3 584C314.1 584 309.9 579.8 309.9 574.6Z" fill="#231F20"/>
<path d="M260.3 574.6C260.3 570.5 263.6 567.2 267.7 567.2C271.8 567.2 275.1 570.5 275.1 574.6C275.1 578.7 271.8 582 267.7 582C263.6 582 260.3 578.7 260.3 574.6Z" fill="#231F20"/>
<path d="M210.8 574.6C210.8 571.7 213.2 569.3 216.1 569.3C219 569.3 221.4 571.7 221.4 574.6C221.4 577.5 219 579.9 216.1 579.9C213.1 579.9 210.8 577.5 210.8 574.6Z" fill="#231F20"/>
<path d="M163.4 574.6C163.4 574 163.9 573.6 164.4 573.6C165 573.6 165.4 574.1 165.4 574.6C165.4 575.2 164.9 575.6 164.4 575.6C163.9 575.6 163.4 575.1 163.4 574.6Z" fill="#231F20"/>
<path d="M105.4 574.6C105.4 570.5 108.7 567.2 112.8 567.2C116.9 567.2 120.2 570.5 120.2 574.6C120.2 578.7 116.9 582 112.8 582C108.7 582 105.4 578.7 105.4 574.6Z" fill="#231F20"/>
<path d="M55.9001 574.6C55.9001 571.7 58.3001 569.3 61.2001 569.3C64.1001 569.3 66.5001 571.7 66.5001 574.6C66.5001 577.5 64.1001 579.9 61.2001 579.9C58.2001 579.9 55.9001 577.5 55.9001 574.6Z" fill="#231F20"/>
<path d="M0.100098 574.6C0.100098 569.4 4.3001 565.2 9.5001 565.2C14.7001 565.2 18.9001 569.4 18.9001 574.6C18.9001 579.8 14.7001 584 9.5001 584C4.3001 584 0.100098 579.8 0.100098 574.6Z" fill="#231F20"/>
<path d="M1400.8 511.8C1400.8 510.2 1402.1 509 1403.6 509C1405.1 509 1406.4 510.3 1406.4 511.8C1406.4 513.3 1405.1 514.6 1403.6 514.6C1402.1 514.6 1400.8 513.4 1400.8 511.8Z" fill="#231F20"/>
<path d="M1349.4 511.8C1349.4 510.3 1350.6 509.2 1352 509.2C1353.5 509.2 1354.6 510.4 1354.6 511.8C1354.6 513.3 1353.4 514.4 1352 514.4C1350.5 514.5 1349.4 513.3 1349.4 511.8Z" fill="#231F20"/>
<path d="M1293.8 511.8C1293.8 508.1 1296.8 505.2 1300.4 505.2C1304 505.2 1307 508.2 1307 511.8C1307 515.4 1304 518.4 1300.4 518.4C1296.7 518.4 1293.8 515.5 1293.8 511.8Z" fill="#231F20"/>
<path d="M1244.2 511.8C1244.2 509.3 1246.3 507.2 1248.8 507.2C1251.3 507.2 1253.4 509.3 1253.4 511.8C1253.4 514.3 1251.3 516.4 1248.8 516.4C1246.2 516.4 1244.2 514.4 1244.2 511.8Z" fill="#231F20"/>
<path d="M1187.5 511.8C1187.5 506.5 1191.8 502.2 1197.1 502.2C1202.4 502.2 1206.7 506.5 1206.7 511.8C1206.7 517.1 1202.4 521.4 1197.1 521.4C1191.8 521.4 1187.5 517.1 1187.5 511.8Z" fill="#231F20"/>
<path d="M1139.6 511.8C1139.6 508.6 1142.2 506 1145.4 506C1148.6 506 1151.2 508.6 1151.2 511.8C1151.2 515 1148.6 517.6 1145.4 517.6C1142.2 517.7 1139.6 515.1 1139.6 511.8Z" fill="#231F20"/>
<path d="M1092.6 511.8C1092.6 511.1 1093.2 510.5 1093.9 510.5C1094.6 510.5 1095.2 511.1 1095.2 511.8C1095.2 512.5 1094.6 513.1 1093.9 513.1C1093.1 513.1 1092.6 512.5 1092.6 511.8Z" fill="#231F20"/>
<path d="M1032.6 511.8C1032.6 506.5 1036.9 502.2 1042.2 502.2C1047.5 502.2 1051.8 506.5 1051.8 511.8C1051.8 517.1 1047.5 521.4 1042.2 521.4C1036.9 521.4 1032.6 517.1 1032.6 511.8Z" fill="#231F20"/>
<path d="M986.7 511.8C986.7 509.6 988.4 507.9 990.6 507.9C992.8 507.9 994.5 509.6 994.5 511.8C994.5 514 992.8 515.7 990.6 515.7C988.4 515.7 986.7 514 986.7 511.8Z" fill="#231F20"/>
<path d="M933 511.8C933 508.5 935.7 505.8 939 505.8C942.3 505.8 945 508.5 945 511.8C945 515.1 942.3 517.8 939 517.8C935.6 517.8 933 515.1 933 511.8Z" fill="#231F20"/>
<path d="M885.2 511.8C885.2 510.6 886.2 509.7 887.3 509.7C888.5 509.7 889.4 510.7 889.4 511.8C889.4 513 888.4 513.9 887.3 513.9C886.1 514 885.2 513 885.2 511.8Z" fill="#231F20"/>
<path d="M832.3 511.8C832.3 510 833.8 508.5 835.6 508.5C837.4 508.5 838.9 510 838.9 511.8C838.9 513.6 837.4 515.1 835.6 515.1C833.8 515.2 832.3 513.7 832.3 511.8Z" fill="#231F20"/>
<path d="M774.6 511.8C774.6 506.6 778.8 502.3 784.1 502.3C789.3 502.3 793.6 506.5 793.6 511.8C793.6 517 789.4 521.3 784.1 521.3C778.8 521.3 774.6 517 774.6 511.8Z" fill="#231F20"/>
<path d="M729.5 511.8C729.5 510.2 730.8 508.9 732.4 508.9C734 508.9 735.3 510.2 735.3 511.8C735.3 513.4 734 514.7 732.4 514.7C730.8 514.7 729.5 513.4 729.5 511.8Z" fill="#231F20"/>
<path d="M671.4 511.8C671.4 506.6 675.6 502.4 680.8 502.4C686 502.4 690.1 506.6 690.1 511.8C690.1 517 685.9 521.2 680.8 521.2C675.6 521.2 671.4 517 671.4 511.8Z" fill="#231F20"/>
<path d="M622.9 511.8C622.9 508.4 625.7 505.6 629.1 505.6C632.5 505.6 635.3 508.4 635.3 511.8C635.3 515.2 632.5 518 629.1 518C625.7 518.1 622.9 515.3 622.9 511.8Z" fill="#231F20"/>
<path d="M573.5 511.8C573.5 509.6 575.3 507.8 577.5 507.8C579.7 507.8 581.5 509.6 581.5 511.8C581.5 514 579.7 515.8 577.5 515.8C575.3 515.8 573.5 514 573.5 511.8Z" fill="#231F20"/>
<path d="M517.6 511.8C517.6 507.3 521.3 503.6 525.8 503.6C530.3 503.6 534 507.3 534 511.8C534 516.3 530.3 520 525.8 520C521.3 520 517.6 516.4 517.6 511.8Z" fill="#231F20"/>
<path d="M470.3 511.8C470.3 509.7 472 507.9 474.2 507.9C476.3 507.9 478.1 509.6 478.1 511.8C478.1 513.9 476.4 515.7 474.2 515.7C472.1 515.7 470.3 514 470.3 511.8Z" fill="#231F20"/>
<path d="M418.1 511.8C418.1 509.3 420.1 507.3 422.6 507.3C425.1 507.3 427.1 509.3 427.1 511.8C427.1 514.3 425.1 516.3 422.6 516.3C420.1 516.3 418.1 514.3 418.1 511.8Z" fill="#231F20"/>
<path d="M363.9 511.8C363.9 507.9 367.1 504.7 371 504.7C374.9 504.7 378.1 507.9 378.1 511.8C378.1 515.7 374.9 518.9 371 518.9C367.1 518.9 363.9 515.7 363.9 511.8Z" fill="#231F20"/>
<path d="M311.7 511.8C311.7 507.6 315.1 504.2 319.3 504.2C323.5 504.2 326.9 507.6 326.9 511.8C326.9 516 323.5 519.4 319.3 519.4C315.1 519.4 311.7 516 311.7 511.8Z" fill="#231F20"/>
<path d="M262.9 511.8C262.9 509.2 265 507 267.7 507C270.3 507 272.5 509.1 272.5 511.8C272.5 514.4 270.3 516.6 267.7 516.6C265.1 516.6 262.9 514.5 262.9 511.8Z" fill="#231F20"/>
<path d="M207.2 511.8C207.2 506.9 211.2 502.9 216.1 502.9C221 502.9 225 506.9 225 511.8C225 516.7 221 520.7 216.1 520.7C211.2 520.7 207.2 516.7 207.2 511.8Z" fill="#231F20"/>
<path d="M157.6 511.8C157.6 508 160.7 505 164.4 505C168.2 505 171.2 508.1 171.2 511.8C171.2 515.6 168.1 518.6 164.4 518.6C160.6 518.7 157.6 515.6 157.6 511.8Z" fill="#231F20"/>
<path d="M107.1 511.8C107.1 508.7 109.6 506.1 112.8 506.1C115.9 506.1 118.5 508.7 118.5 511.8C118.5 514.9 115.9 517.5 112.8 517.5C109.6 517.5 107.1 515 107.1 511.8Z" fill="#231F20"/>
<path d="M52.8001 511.8C52.8001 507.2 56.5001 503.5 61.1001 503.5C65.7001 503.5 69.4001 507.2 69.4001 511.8C69.4001 516.4 65.7001 520.1 61.1001 520.1C56.6001 520.1 52.8001 516.4 52.8001 511.8Z" fill="#231F20"/>
<path d="M3.4001 511.8C3.4001 508.4 6.2001 505.6 9.6001 505.6C13.0001 505.6 15.8001 508.4 15.8001 511.8C15.8001 515.2 13.1001 518 9.6001 518C6.1001 518 3.4001 515.2 3.4001 511.8Z" fill="#231F20"/>
<path d="M1393.9 449.1C1393.9 443.7 1398.3 439.3 1403.7 439.3C1409.1 439.3 1413.5 443.7 1413.5 449.1C1413.5 454.5 1409.1 458.9 1403.7 458.9C1398.2 458.9 1393.9 454.5 1393.9 449.1Z" fill="#231F20"/>
<path d="M1350.6 449.1C1350.6 448.3 1351.2 447.7 1352 447.7C1352.8 447.7 1353.4 448.3 1353.4 449.1C1353.4 449.9 1352.8 450.5 1352 450.5C1351.3 450.4 1350.6 449.8 1350.6 449.1Z" fill="#231F20"/>
<path d="M1297 449.1C1297 447.2 1298.5 445.7 1300.4 445.7C1302.3 445.7 1303.8 447.2 1303.8 449.1C1303.8 451 1302.3 452.5 1300.4 452.5C1298.5 452.5 1297 450.9 1297 449.1Z" fill="#231F20"/>
<path d="M1241 449.1C1241 444.8 1244.5 441.4 1248.7 441.4C1253 441.4 1256.4 444.9 1256.4 449.1C1256.4 453.4 1252.9 456.8 1248.7 456.8C1244.5 456.8 1241 453.3 1241 449.1Z" fill="#231F20"/>
<path d="M1188.5 449.1C1188.5 444.3 1192.3 440.5 1197.1 440.5C1201.9 440.5 1205.7 444.4 1205.7 449.1C1205.7 453.9 1201.8 457.7 1197.1 457.7C1192.3 457.7 1188.5 453.8 1188.5 449.1Z" fill="#231F20"/>
<path d="M1139.1 449.1C1139.1 445.6 1142 442.7 1145.5 442.7C1149 442.7 1151.9 445.6 1151.9 449.1C1151.9 452.6 1149 455.5 1145.5 455.5C1141.9 455.5 1139.1 452.6 1139.1 449.1Z" fill="#231F20"/>
<path d="M1088.5 449.1C1088.5 446.1 1090.9 443.7 1093.9 443.7C1096.9 443.7 1099.3 446.1 1099.3 449.1C1099.3 452.1 1096.9 454.5 1093.9 454.5C1090.9 454.4 1088.5 452 1088.5 449.1Z" fill="#231F20"/>
<path d="M1037.5 449.1C1037.5 446.5 1039.6 444.4 1042.2 444.4C1044.8 444.4 1046.9 446.5 1046.9 449.1C1046.9 451.7 1044.8 453.8 1042.2 453.8C1039.6 453.8 1037.5 451.7 1037.5 449.1Z" fill="#231F20"/>
<path d="M985.5 449.1C985.5 446.3 987.8 444 990.6 444C993.4 444 995.7 446.3 995.7 449.1C995.7 451.9 993.4 454.2 990.6 454.2C987.8 454.1 985.5 451.9 985.5 449.1Z" fill="#231F20"/>
<path d="M937.5 449.1C937.5 448.3 938.1 447.7 938.9 447.7C939.7 447.7 940.3 448.3 940.3 449.1C940.3 449.9 939.7 450.5 938.9 450.5C938.2 450.5 937.5 449.9 937.5 449.1Z" fill="#231F20"/>
<path d="M883.4 449.1C883.4 446.9 885.2 445.2 887.3 445.2C889.5 445.2 891.2 447 891.2 449.1C891.2 451.3 889.4 453 887.3 453C885.1 453 883.4 451.2 883.4 449.1Z" fill="#231F20"/>
<path d="M826.2 449.1C826.2 443.9 830.4 439.6 835.7 439.6C840.9 439.6 845.2 443.8 845.2 449.1C845.2 454.3 841 458.6 835.7 458.6C830.4 458.5 826.2 454.3 826.2 449.1Z" fill="#231F20"/>
<path d="M783 449.1C783 448.5 783.5 448.1 784 448.1C784.6 448.1 785 448.6 785 449.1C785 449.7 784.5 450.1 784 450.1C783.5 450.1 783 449.6 783 449.1Z" fill="#231F20"/>
<path d="M722.6 449.1C722.6 443.7 727 439.3 732.4 439.3C737.8 439.3 742.2 443.7 742.2 449.1C742.2 454.5 737.8 458.9 732.4 458.9C727 458.8 722.6 454.5 722.6 449.1Z" fill="#231F20"/>
<path d="M679 449.1C679 448.1 679.8 447.4 680.7 447.4C681.7 447.4 682.4 448.2 682.4 449.1C682.4 450 681.6 450.8 680.7 450.8C679.8 450.8 679 450 679 449.1Z" fill="#231F20"/>
<path d="M625.2 449.1C625.2 446.9 627 445.2 629.1 445.2C631.3 445.2 633 447 633 449.1C633 451.3 631.3 453 629.1 453C627 453 625.2 451.2 625.2 449.1Z" fill="#231F20"/>
<path d="M574.6 449.1C574.6 447.5 575.9 446.2 577.5 446.2C579.1 446.2 580.4 447.5 580.4 449.1C580.4 450.7 579.1 452 577.5 452C575.9 452 574.6 450.7 574.6 449.1Z" fill="#231F20"/>
<path d="M524.7 449.1C524.7 448.4 525.2 447.9 525.9 447.9C526.6 447.9 527.1 448.4 527.1 449.1C527.1 449.8 526.6 450.3 525.9 450.3C525.2 450.3 524.7 449.7 524.7 449.1Z" fill="#231F20"/>
<path d="M471.6 449.1C471.6 447.6 472.8 446.5 474.2 446.5C475.7 446.5 476.8 447.7 476.8 449.1C476.8 450.6 475.6 451.7 474.2 451.7C472.8 451.7 471.6 450.5 471.6 449.1Z" fill="#231F20"/>
<path d="M418.8 449.1C418.8 447 420.5 445.3 422.6 445.3C424.7 445.3 426.4 447 426.4 449.1C426.4 451.2 424.7 452.9 422.6 452.9C420.5 452.8 418.8 451.1 418.8 449.1Z" fill="#231F20"/>
<path d="M362.3 449.1C362.3 444.3 366.2 440.4 371 440.4C375.8 440.4 379.7 444.3 379.7 449.1C379.7 453.9 375.8 457.8 371 457.8C366.2 457.7 362.3 453.8 362.3 449.1Z" fill="#231F20"/>
<path d="M312.5 449.1C312.5 445.3 315.6 442.2 319.4 442.2C323.2 442.2 326.3 445.3 326.3 449.1C326.3 452.9 323.2 456 319.4 456C315.5 455.9 312.5 452.9 312.5 449.1Z" fill="#231F20"/>
<path d="M261.6 449.1C261.6 445.8 264.3 443 267.6 443C271 443 273.7 445.7 273.7 449.1C273.7 452.4 271 455.1 267.6 455.1C264.3 455.1 261.6 452.4 261.6 449.1Z" fill="#231F20"/>
<path d="M208.2 449.1C208.2 444.8 211.7 441.3 216 441.3C220.3 441.3 223.8 444.8 223.8 449.1C223.8 453.4 220.3 456.9 216 456.9C211.7 456.9 208.2 453.4 208.2 449.1Z" fill="#231F20"/>
<path d="M161.6 449.1C161.6 447.6 162.9 446.3 164.4 446.3C165.9 446.3 167.2 447.5 167.2 449.1C167.2 450.6 165.9 451.9 164.4 451.9C162.9 451.9 161.6 450.6 161.6 449.1Z" fill="#231F20"/>
<path d="M103.2 449.1C103.2 443.8 107.5 439.5 112.8 439.5C118.1 439.5 122.4 443.8 122.4 449.1C122.4 454.4 118.1 458.7 112.8 458.7C107.5 458.7 103.2 454.4 103.2 449.1Z" fill="#231F20"/>
<path d="M52.5001 449.1C52.5001 444.3 56.4001 440.4 61.2001 440.4C66.0001 440.4 69.9001 444.3 69.9001 449.1C69.9001 453.9 66.0001 457.8 61.2001 457.8C56.4001 457.7 52.5001 453.9 52.5001 449.1Z" fill="#231F20"/>
<path d="M0.600098 449.1C0.600098 444.2 4.6001 440.2 9.5001 440.2C14.4001 440.2 18.4001 444.2 18.4001 449.1C18.4001 454 14.4001 458 9.5001 458C4.6001 457.9 0.600098 454 0.600098 449.1Z" fill="#231F20"/>
<path d="M1400.2 386.3C1400.2 384.4 1401.8 382.8 1403.7 382.8C1405.6 382.8 1407.2 384.4 1407.2 386.3C1407.2 388.2 1405.6 389.8 1403.7 389.8C1401.7 389.8 1400.2 388.2 1400.2 386.3Z" fill="#231F20"/>
<path d="M1345.8 386.3C1345.8 382.9 1348.6 380.1 1352 380.1C1355.4 380.1 1358.2 382.9 1358.2 386.3C1358.2 389.7 1355.4 392.5 1352 392.5C1348.6 392.5 1345.8 389.7 1345.8 386.3Z" fill="#231F20"/>
<path d="M1293.6 386.3C1293.6 382.5 1296.7 379.5 1300.4 379.5C1304.2 379.5 1307.2 382.5 1307.2 386.3C1307.2 390.1 1304.1 393.1 1300.4 393.1C1296.6 393.1 1293.6 390.1 1293.6 386.3Z" fill="#231F20"/>
<path d="M1239.8 386.3C1239.8 381.4 1243.8 377.3 1248.8 377.3C1253.7 377.3 1257.8 381.3 1257.8 386.3C1257.8 391.2 1253.8 395.3 1248.8 395.3C1243.8 395.3 1239.8 391.2 1239.8 386.3Z" fill="#231F20"/>
<path d="M1193.9 386.3C1193.9 384.5 1195.3 383.1 1197.1 383.1C1198.9 383.1 1200.3 384.5 1200.3 386.3C1200.3 388.1 1198.9 389.5 1197.1 389.5C1195.3 389.5 1193.9 388.1 1193.9 386.3Z" fill="#231F20"/>
<path d="M1143.3 386.3C1143.3 385.1 1144.3 384.1 1145.5 384.1C1146.7 384.1 1147.7 385.1 1147.7 386.3C1147.7 387.5 1146.7 388.5 1145.5 388.5C1144.3 388.5 1143.3 387.5 1143.3 386.3Z" fill="#231F20"/>
<path d="M1090.8 386.3C1090.8 384.6 1092.1 383.3 1093.8 383.3C1095.5 383.3 1096.8 384.6 1096.8 386.3C1096.8 387.9 1095.5 389.3 1093.8 389.3C1092.2 389.3 1090.8 387.9 1090.8 386.3Z" fill="#231F20"/>
<path d="M1037.8 386.3C1037.8 383.9 1039.8 381.9 1042.2 381.9C1044.6 381.9 1046.6 383.9 1046.6 386.3C1046.6 388.7 1044.6 390.7 1042.2 390.7C1039.8 390.7 1037.8 388.7 1037.8 386.3Z" fill="#231F20"/>
<path d="M986.2 386.3C986.2 383.9 988.2 381.9 990.6 381.9C993 381.9 995 383.9 995 386.3C995 388.7 993 390.7 990.6 390.7C988.2 390.7 986.2 388.7 986.2 386.3Z" fill="#231F20"/>
<path d="M933.2 386.3C933.2 383.1 935.8 380.5 939 380.5C942.2 380.5 944.8 383.1 944.8 386.3C944.8 389.5 942.2 392.1 939 392.1C935.8 392.1 933.2 389.5 933.2 386.3Z" fill="#231F20"/>
<path d="M880.6 386.3C880.6 382.6 883.6 379.6 887.3 379.6C891 379.6 894 382.6 894 386.3C894 390 891 393 887.3 393C883.6 393 880.6 390 880.6 386.3Z" fill="#231F20"/>
<path d="M831.4 386.3C831.4 383.9 833.3 382 835.7 382C838.1 382 840 383.9 840 386.3C840 388.7 838.1 390.6 835.7 390.6C833.3 390.6 831.4 388.7 831.4 386.3Z" fill="#231F20"/>
<path d="M782.6 386.3C782.6 385.5 783.3 384.8 784.1 384.8C784.9 384.8 785.6 385.5 785.6 386.3C785.6 387.1 784.9 387.8 784.1 387.8C783.2 387.8 782.6 387.1 782.6 386.3Z" fill="#231F20"/>
<path d="M726.4 386.3C726.4 383 729.1 380.3 732.4 380.3C735.7 380.3 738.4 383 738.4 386.3C738.4 389.6 735.7 392.3 732.4 392.3C729.1 392.3 726.4 389.6 726.4 386.3Z" fill="#231F20"/>
<path d="M676.8 386.3C676.8 384.1 678.6 382.4 680.7 382.4C682.9 382.4 684.6 384.2 684.6 386.3C684.6 388.5 682.9 390.2 680.7 390.2C678.6 390.2 676.8 388.5 676.8 386.3Z" fill="#231F20"/>
<path d="M628.1 386.3C628.1 385.7 628.6 385.2 629.2 385.2C629.8 385.2 630.3 385.7 630.3 386.3C630.3 386.9 629.8 387.4 629.2 387.4C628.5 387.4 628.1 386.9 628.1 386.3Z" fill="#231F20"/>
<path d="M571.9 386.3C571.9 383.2 574.4 380.7 577.5 380.7C580.6 380.7 583.1 383.2 583.1 386.3C583.1 389.4 580.6 391.9 577.5 391.9C574.4 391.9 571.9 389.4 571.9 386.3Z" fill="#231F20"/>
<path d="M519.1 386.3C519.1 382.6 522.1 379.5 525.9 379.5C529.6 379.5 532.7 382.5 532.7 386.3C532.7 390 529.7 393.1 525.9 393.1C522.1 393.1 519.1 390 519.1 386.3Z" fill="#231F20"/>
<path d="M465.3 386.3C465.3 381.4 469.3 377.4 474.2 377.4C479.1 377.4 483.1 381.4 483.1 386.3C483.1 391.2 479.1 395.2 474.2 395.2C469.3 395.2 465.3 391.2 465.3 386.3Z" fill="#231F20"/>
<path d="M414 386.3C414 381.6 417.8 377.7 422.6 377.7C427.3 377.7 431.2 381.5 431.2 386.3C431.2 391 427.4 394.9 422.6 394.9C417.9 394.9 414 391 414 386.3Z" fill="#231F20"/>
<path d="M361.3 386.3C361.3 381 365.6 376.7 370.9 376.7C376.2 376.7 380.5 381 380.5 386.3C380.5 391.6 376.2 395.9 370.9 395.9C365.6 395.9 361.3 391.6 361.3 386.3Z" fill="#231F20"/>
<path d="M312 386.3C312 382.3 315.3 379 319.3 379C323.3 379 326.6 382.3 326.6 386.3C326.6 390.3 323.3 393.6 319.3 393.6C315.3 393.6 312 390.3 312 386.3Z" fill="#231F20"/>
<path d="M264.1 386.3C264.1 384.3 265.7 382.7 267.7 382.7C269.7 382.7 271.3 384.3 271.3 386.3C271.3 388.3 269.7 389.9 267.7 389.9C265.7 389.9 264.1 388.3 264.1 386.3Z" fill="#231F20"/>
<path d="M212.7 386.3C212.7 384.4 214.2 382.9 216.1 382.9C218 382.9 219.5 384.4 219.5 386.3C219.5 388.2 218 389.7 216.1 389.7C214.2 389.7 212.7 388.2 212.7 386.3Z" fill="#231F20"/>
<path d="M162.8 386.3C162.8 385.4 163.5 384.7 164.4 384.7C165.3 384.7 166 385.4 166 386.3C166 387.2 165.3 387.9 164.4 387.9C163.5 387.9 162.8 387.2 162.8 386.3Z" fill="#231F20"/>
<path d="M103 386.3C103 380.9 107.4 376.5 112.8 376.5C118.2 376.5 122.6 380.9 122.6 386.3C122.6 391.7 118.2 396.1 112.8 396.1C107.4 396.1 103 391.7 103 386.3Z" fill="#231F20"/>
<path d="M52.0001 386.3C52.0001 381.2 56.1001 377.1 61.2001 377.1C66.3001 377.1 70.4001 381.2 70.4001 386.3C70.4001 391.4 66.3001 395.5 61.2001 395.5C56.1001 395.5 52.0001 391.4 52.0001 386.3Z" fill="#231F20"/>
<path d="M0.400101 386.3C0.400101 381.3 4.5001 377.2 9.5001 377.2C14.5001 377.2 18.6001 381.3 18.6001 386.3C18.6001 391.3 14.5001 395.4 9.5001 395.4C4.5001 395.4 0.400101 391.3 0.400101 386.3Z" fill="#231F20"/>
<path d="M1396.5 323.5C1396.5 319.5 1399.7 316.3 1403.7 316.3C1407.7 316.3 1410.9 319.5 1410.9 323.5C1410.9 327.5 1407.7 330.7 1403.7 330.7C1399.7 330.7 1396.5 327.5 1396.5 323.5Z" fill="#231F20"/>
<path d="M1348.8 323.5C1348.8 321.7 1350.2 320.3 1352 320.3C1353.8 320.3 1355.2 321.7 1355.2 323.5C1355.2 325.3 1353.7 326.7 1352 326.7C1350.2 326.8 1348.8 325.3 1348.8 323.5Z" fill="#231F20"/>
<path d="M1298.2 323.5C1298.2 322.3 1299.2 321.3 1300.4 321.3C1301.6 321.3 1302.6 322.3 1302.6 323.5C1302.6 324.7 1301.6 325.7 1300.4 325.7C1299.2 325.7 1298.2 324.7 1298.2 323.5Z" fill="#231F20"/>
<path d="M1247.1 323.5C1247.1 322.6 1247.8 321.9 1248.7 321.9C1249.6 321.9 1250.3 322.6 1250.3 323.5C1250.3 324.4 1249.6 325.1 1248.7 325.1C1247.8 325.2 1247.1 324.4 1247.1 323.5Z" fill="#231F20"/>
<path d="M1188.1 323.5C1188.1 318.5 1192.1 314.5 1197.1 314.5C1202.1 314.5 1206.1 318.5 1206.1 323.5C1206.1 328.5 1202.1 332.5 1197.1 332.5C1192.2 332.5 1188.1 328.5 1188.1 323.5Z" fill="#231F20"/>
<path d="M1140.7 323.5C1140.7 320.8 1142.9 318.7 1145.5 318.7C1148.2 318.7 1150.3 320.9 1150.3 323.5C1150.3 326.2 1148.1 328.3 1145.5 328.3C1142.8 328.3 1140.7 326.2 1140.7 323.5Z" fill="#231F20"/>
<path d="M1090.8 323.5C1090.8 321.8 1092.2 320.4 1093.9 320.4C1095.6 320.4 1097 321.8 1097 323.5C1097 325.2 1095.6 326.6 1093.9 326.6C1092.1 326.6 1090.8 325.2 1090.8 323.5Z" fill="#231F20"/>
<path d="M1037.5 323.5C1037.5 320.9 1039.6 318.8 1042.2 318.8C1044.8 318.8 1046.9 320.9 1046.9 323.5C1046.9 326.1 1044.8 328.2 1042.2 328.2C1039.6 328.3 1037.5 326.1 1037.5 323.5Z" fill="#231F20"/>
<path d="M987.8 323.5C987.8 322 989 320.8 990.5 320.8C992 320.8 993.2 322 993.2 323.5C993.2 325 992 326.2 990.5 326.2C989.1 326.3 987.8 325 987.8 323.5Z" fill="#231F20"/>
<path d="M932.5 323.5C932.5 320 935.4 317.1 938.9 317.1C942.4 317.1 945.3 320 945.3 323.5C945.3 327 942.4 329.9 938.9 329.9C935.4 329.9 932.5 327.1 932.5 323.5Z" fill="#231F20"/>
<path d="M879.2 323.5C879.2 319 882.8 315.4 887.3 315.4C891.8 315.4 895.4 319 895.4 323.5C895.4 328 891.8 331.6 887.3 331.6C882.8 331.7 879.2 328 879.2 323.5Z" fill="#231F20"/>
<path d="M826.3 323.5C826.3 318.3 830.5 314.1 835.7 314.1C840.9 314.1 845.1 318.3 845.1 323.5C845.1 328.7 840.9 332.9 835.7 332.9C830.5 332.9 826.3 328.7 826.3 323.5Z" fill="#231F20"/>
<path d="M779.4 323.5C779.4 321 781.5 318.9 784 318.9C786.5 318.9 788.6 321 788.6 323.5C788.6 326 786.5 328.1 784 328.1C781.5 328.1 779.4 326.1 779.4 323.5Z" fill="#231F20"/>
<path d="M726.8 323.5C726.8 320.4 729.3 317.9 732.4 317.9C735.5 317.9 738 320.4 738 323.5C738 326.6 735.5 329.1 732.4 329.1C729.3 329.1 726.8 326.6 726.8 323.5Z" fill="#231F20"/>
<path d="M676.8 323.5C676.8 321.3 678.6 319.6 680.7 319.6C682.9 319.6 684.6 321.4 684.6 323.5C684.6 325.7 682.8 327.4 680.7 327.4C678.6 327.5 676.8 325.7 676.8 323.5Z" fill="#231F20"/>
<path d="M626 323.5C626 321.8 627.4 320.4 629.1 320.4C630.8 320.4 632.2 321.8 632.2 323.5C632.2 325.2 630.8 326.6 629.1 326.6C627.4 326.7 626 325.3 626 323.5Z" fill="#231F20"/>
<path d="M571.7 323.5C571.7 320.3 574.3 317.7 577.4 317.7C580.6 317.7 583.1 320.3 583.1 323.5C583.1 326.7 580.5 329.2 577.4 329.2C574.3 329.3 571.7 326.7 571.7 323.5Z" fill="#231F20"/>
<path d="M517.3 323.5C517.3 318.8 521.1 315 525.9 315C530.6 315 534.4 318.8 534.4 323.5C534.4 328.2 530.6 332 525.9 332C521.1 332.1 517.3 328.3 517.3 323.5Z" fill="#231F20"/>
<path d="M468.6 323.5C468.6 320.4 471.1 317.9 474.2 317.9C477.3 317.9 479.8 320.4 479.8 323.5C479.8 326.6 477.3 329.1 474.2 329.1C471.1 329.2 468.6 326.6 468.6 323.5Z" fill="#231F20"/>
<path d="M420.8 323.5C420.8 322.5 421.6 321.7 422.6 321.7C423.6 321.7 424.4 322.5 424.4 323.5C424.4 324.5 423.6 325.3 422.6 325.3C421.6 325.3 420.8 324.5 420.8 323.5Z" fill="#231F20"/>
<path d="M369.2 323.5C369.2 322.5 370 321.7 371 321.7C372 321.7 372.8 322.5 372.8 323.5C372.8 324.5 372 325.3 371 325.3C370 325.3 369.2 324.5 369.2 323.5Z" fill="#231F20"/>
<path d="M317.1 323.5C317.1 322.3 318.1 321.3 319.3 321.3C320.5 321.3 321.5 322.3 321.5 323.5C321.5 324.7 320.5 325.7 319.3 325.7C318.1 325.7 317.1 324.8 317.1 323.5Z" fill="#231F20"/>
<path d="M262.1 323.5C262.1 320.4 264.6 317.9 267.7 317.9C270.8 317.9 273.3 320.4 273.3 323.5C273.3 326.6 270.8 329.1 267.7 329.1C264.6 329.2 262.1 326.7 262.1 323.5Z" fill="#231F20"/>
<path d="M210.8 323.5C210.8 320.6 213.1 318.3 216 318.3C218.9 318.3 221.2 320.6 221.2 323.5C221.2 326.4 218.9 328.7 216 328.7C213.2 328.8 210.8 326.4 210.8 323.5Z" fill="#231F20"/>
<path d="M156.5 323.5C156.5 319.1 160 315.6 164.4 315.6C168.8 315.6 172.3 319.1 172.3 323.5C172.3 327.9 168.8 331.4 164.4 331.4C160.1 331.5 156.5 327.9 156.5 323.5Z" fill="#231F20"/>
<path d="M106 323.5C106 319.7 109 316.7 112.8 316.7C116.6 316.7 119.6 319.7 119.6 323.5C119.6 327.3 116.6 330.3 112.8 330.3C109 330.3 106 327.3 106 323.5Z" fill="#231F20"/>
<path d="M58.6001 323.5C58.6001 322.1 59.7001 321 61.1001 321C62.5001 321 63.6001 322.1 63.6001 323.5C63.6001 324.9 62.5001 326 61.1001 326C59.8001 326.1 58.6001 324.9 58.6001 323.5Z" fill="#231F20"/>
<path d="M2.4001 323.5C2.4001 319.5 5.6001 316.3 9.6001 316.3C13.5001 316.3 16.8001 319.5 16.8001 323.5C16.8001 327.4 13.6001 330.7 9.6001 330.7C5.6001 330.7 2.4001 327.5 2.4001 323.5Z" fill="#231F20"/>
<path d="M1395.7 260.8C1395.7 256.4 1399.2 252.9 1403.6 252.9C1408 252.9 1411.5 256.4 1411.5 260.8C1411.5 265.2 1408 268.7 1403.6 268.7C1399.3 268.7 1395.7 265.1 1395.7 260.8Z" fill="#231F20"/>
<path d="M1346.7 260.8C1346.7 257.9 1349.1 255.5 1352 255.5C1354.9 255.5 1357.3 257.9 1357.3 260.8C1357.3 263.7 1354.9 266.1 1352 266.1C1349.1 266.1 1346.7 263.7 1346.7 260.8Z" fill="#231F20"/>
<path d="M1296.7 260.8C1296.7 258.8 1298.3 257.2 1300.3 257.2C1302.3 257.2 1303.9 258.8 1303.9 260.8C1303.9 262.8 1302.3 264.4 1300.3 264.4C1298.4 264.4 1296.7 262.8 1296.7 260.8Z" fill="#231F20"/>
<path d="M1244.6 260.8C1244.6 258.5 1246.4 256.7 1248.7 256.7C1251 256.7 1252.8 258.5 1252.8 260.8C1252.8 263.1 1251 264.9 1248.7 264.9C1246.5 264.9 1244.6 263 1244.6 260.8Z" fill="#231F20"/>
<path d="M1194.6 260.8C1194.6 259.4 1195.7 258.2 1197.2 258.2C1198.6 258.2 1199.8 259.3 1199.8 260.8C1199.8 262.2 1198.7 263.4 1197.2 263.4C1195.7 263.3 1194.6 262.2 1194.6 260.8Z" fill="#231F20"/>
<path d="M1136.5 260.8C1136.5 255.9 1140.5 251.9 1145.4 251.9C1150.3 251.9 1154.3 255.9 1154.3 260.8C1154.3 265.7 1150.3 269.7 1145.4 269.7C1140.5 269.7 1136.5 265.7 1136.5 260.8Z" fill="#231F20"/>
<path d="M1089.2 260.8C1089.2 258.3 1091.3 256.2 1093.8 256.2C1096.3 256.2 1098.4 258.3 1098.4 260.8C1098.4 263.3 1096.3 265.4 1093.8 265.4C1091.3 265.4 1089.2 263.3 1089.2 260.8Z" fill="#231F20"/>
<path d="M1034.8 260.8C1034.8 256.7 1038.1 253.4 1042.2 253.4C1046.3 253.4 1049.6 256.7 1049.6 260.8C1049.6 264.9 1046.3 268.2 1042.2 268.2C1038.1 268.1 1034.8 264.8 1034.8 260.8Z" fill="#231F20"/>
<path d="M983 260.8C983 256.6 986.4 253.2 990.6 253.2C994.8 253.2 998.2 256.6 998.2 260.8C998.2 265 994.8 268.4 990.6 268.4C986.4 268.4 983 265 983 260.8Z" fill="#231F20"/>
<path d="M934.5 260.8C934.5 258.4 936.5 256.4 938.9 256.4C941.4 256.4 943.3 258.4 943.3 260.8C943.3 263.2 941.3 265.2 938.9 265.2C936.5 265.2 934.5 263.2 934.5 260.8Z" fill="#231F20"/>
<path d="M880.5 260.8C880.5 257 883.6 254 887.3 254C891.1 254 894.1 257.1 894.1 260.8C894.1 264.6 891 267.6 887.3 267.6C883.5 267.6 880.5 264.6 880.5 260.8Z" fill="#231F20"/>
<path d="M831 260.8C831 258.2 833.1 256.1 835.7 256.1C838.3 256.1 840.4 258.2 840.4 260.8C840.4 263.4 838.3 265.5 835.7 265.5C833.1 265.4 831 263.4 831 260.8Z" fill="#231F20"/>
<path d="M777.5 260.8C777.5 257.2 780.4 254.2 784.1 254.2C787.7 254.2 790.7 257.1 790.7 260.8C790.7 264.4 787.8 267.4 784.1 267.4C780.4 267.3 777.5 264.4 777.5 260.8Z" fill="#231F20"/>
<path d="M726 260.8C726 257.2 728.9 254.4 732.4 254.4C736 254.4 738.8 257.3 738.8 260.8C738.8 264.4 735.9 267.2 732.4 267.2C728.8 267.2 726 264.3 726 260.8Z" fill="#231F20"/>
<path d="M671.8 260.8C671.8 255.9 675.8 251.9 680.7 251.9C685.6 251.9 689.6 255.9 689.6 260.8C689.6 265.7 685.6 269.7 680.7 269.7C675.8 269.7 671.8 265.7 671.8 260.8Z" fill="#231F20"/>
<path d="M624 260.8C624 257.9 626.3 255.6 629.2 255.6C632.1 255.6 634.4 257.9 634.4 260.8C634.4 263.7 632.1 266 629.2 266C626.3 266 624 263.6 624 260.8Z" fill="#231F20"/>
<path d="M574.8 260.8C574.8 259.3 576 258.1 577.5 258.1C579 258.1 580.2 259.3 580.2 260.8C580.2 262.3 579 263.5 577.5 263.5C576 263.5 574.8 262.3 574.8 260.8Z" fill="#231F20"/>
<path d="M520.5 260.8C520.5 257.9 522.9 255.5 525.8 255.5C528.7 255.5 531.1 257.9 531.1 260.8C531.1 263.7 528.7 266.1 525.8 266.1C522.9 266.1 520.5 263.7 520.5 260.8Z" fill="#231F20"/>
<path d="M471 260.8C471 259 472.5 257.5 474.3 257.5C476.1 257.5 477.6 259 477.6 260.8C477.6 262.6 476.1 264.1 474.3 264.1C472.4 264 471 262.6 471 260.8Z" fill="#231F20"/>
<path d="M416.8 260.8C416.8 257.6 419.4 255 422.6 255C425.8 255 428.4 257.6 428.4 260.8C428.4 264 425.8 266.6 422.6 266.6C419.4 266.6 416.8 264 416.8 260.8Z" fill="#231F20"/>
<path d="M364.1 260.8C364.1 257 367.2 253.9 371 253.9C374.8 253.9 377.9 257 377.9 260.8C377.9 264.6 374.8 267.7 371 267.7C367.2 267.7 364.1 264.6 364.1 260.8Z" fill="#231F20"/>
<path d="M314.1 260.8C314.1 257.9 316.4 255.6 319.3 255.6C322.2 255.6 324.5 257.9 324.5 260.8C324.5 263.7 322.2 266 319.3 266C316.5 266 314.1 263.6 314.1 260.8Z" fill="#231F20"/>
<path d="M264.8 260.8C264.8 259.2 266.1 258 267.6 258C269.2 258 270.4 259.3 270.4 260.8C270.4 262.4 269.1 263.6 267.6 263.6C266.1 263.6 264.8 262.3 264.8 260.8Z" fill="#231F20"/>
<path d="M211.7 260.8C211.7 258.4 213.6 256.5 216 256.5C218.4 256.5 220.3 258.4 220.3 260.8C220.3 263.2 218.4 265.1 216 265.1C213.7 265.1 211.7 263.2 211.7 260.8Z" fill="#231F20"/>
<path d="M156.7 260.8C156.7 256.5 160.2 253.1 164.4 253.1C168.7 253.1 172.1 256.6 172.1 260.8C172.1 265.1 168.6 268.5 164.4 268.5C160.2 268.5 156.7 265 156.7 260.8Z" fill="#231F20"/>
<path d="M106.7 260.8C106.7 257.4 109.4 254.7 112.8 254.7C116.2 254.7 118.9 257.4 118.9 260.8C118.9 264.2 116.2 266.9 112.8 266.9C109.4 266.9 106.7 264.2 106.7 260.8Z" fill="#231F20"/>
<path d="M57.0001 260.8C57.0001 258.5 58.9001 256.6 61.2001 256.6C63.5001 256.6 65.4001 258.5 65.4001 260.8C65.4001 263.1 63.5001 265 61.2001 265C58.8001 265 57.0001 263.1 57.0001 260.8Z" fill="#231F20"/>
<path d="M3.2001 260.8C3.2001 257.3 6.00011 254.5 9.50011 254.5C13.0001 254.5 15.8001 257.3 15.8001 260.8C15.8001 264.3 13.0001 267.1 9.50011 267.1C6.00011 267.1 3.2001 264.3 3.2001 260.8Z" fill="#231F20"/>
<path d="M1400.2 198C1400.2 196.1 1401.7 194.6 1403.6 194.6C1405.5 194.6 1407 196.1 1407 198C1407 199.9 1405.5 201.4 1403.6 201.4C1401.8 201.4 1400.2 199.9 1400.2 198Z" fill="#231F20"/>
<path d="M1349.7 198C1349.7 196.7 1350.7 195.7 1352 195.7C1353.3 195.7 1354.3 196.7 1354.3 198C1354.3 199.3 1353.3 200.3 1352 200.3C1350.7 200.3 1349.7 199.3 1349.7 198Z" fill="#231F20"/>
<path d="M1298.7 198C1298.7 197.1 1299.5 196.3 1300.4 196.3C1301.3 196.3 1302.1 197.1 1302.1 198C1302.1 198.9 1301.3 199.7 1300.4 199.7C1299.5 199.7 1298.7 198.9 1298.7 198Z" fill="#231F20"/>
<path d="M1239.9 198C1239.9 193.1 1243.9 189.1 1248.8 189.1C1253.7 189.1 1257.7 193.1 1257.7 198C1257.7 202.9 1253.7 206.9 1248.8 206.9C1243.8 206.9 1239.9 202.9 1239.9 198Z" fill="#231F20"/>
<path d="M1192.9 198C1192.9 195.7 1194.8 193.8 1197.1 193.8C1199.4 193.8 1201.3 195.7 1201.3 198C1201.3 200.3 1199.4 202.2 1197.1 202.2C1194.8 202.2 1192.9 200.3 1192.9 198Z" fill="#231F20"/>
<path d="M1136.9 198C1136.9 193.3 1140.7 189.5 1145.4 189.5C1150.1 189.5 1153.9 193.3 1153.9 198C1153.9 202.7 1150.1 206.5 1145.4 206.5C1140.8 206.6 1136.9 202.7 1136.9 198Z" fill="#231F20"/>
<path d="M1091.2 198C1091.2 196.5 1092.4 195.4 1093.8 195.4C1095.3 195.4 1096.4 196.6 1096.4 198C1096.4 199.5 1095.2 200.6 1093.8 200.6C1092.4 200.7 1091.2 199.5 1091.2 198Z" fill="#231F20"/>
<path d="M1037 198C1037 195.1 1039.4 192.7 1042.3 192.7C1045.2 192.7 1047.6 195.1 1047.6 198C1047.6 200.9 1045.2 203.3 1042.3 203.3C1039.3 203.3 1037 200.9 1037 198Z" fill="#231F20"/>
<path d="M984 198C984 194.3 987 191.4 990.6 191.4C994.3 191.4 997.2 194.4 997.2 198C997.2 201.7 994.2 204.6 990.6 204.6C986.9 204.6 984 201.7 984 198Z" fill="#231F20"/>
<path d="M937.5 198C937.5 197.2 938.2 196.5 939 196.5C939.8 196.5 940.5 197.2 940.5 198C940.5 198.8 939.8 199.5 939 199.5C938.1 199.5 937.5 198.8 937.5 198Z" fill="#231F20"/>
<path d="M883.1 198C883.1 195.7 885 193.8 887.3 193.8C889.6 193.8 891.5 195.7 891.5 198C891.5 200.3 889.6 202.2 887.3 202.2C885 202.2 883.1 200.3 883.1 198Z" fill="#231F20"/>
<path d="M831.5 198C831.5 195.7 833.4 193.8 835.7 193.8C838 193.8 839.9 195.7 839.9 198C839.9 200.3 838 202.2 835.7 202.2C833.4 202.2 831.5 200.3 831.5 198Z" fill="#231F20"/>
<path d="M780 198C780 195.7 781.8 193.9 784.1 193.9C786.4 193.9 788.2 195.7 788.2 198C788.2 200.3 786.4 202.1 784.1 202.1C781.8 202.1 780 200.3 780 198Z" fill="#231F20"/>
<path d="M730.5 198C730.5 197 731.3 196.1 732.4 196.1C733.4 196.1 734.3 196.9 734.3 198C734.3 199 733.5 199.9 732.4 199.9C731.4 199.9 730.5 199.1 730.5 198Z" fill="#231F20"/>
<path d="M679.6 198C679.6 197.4 680.1 196.8 680.8 196.8C681.4 196.8 682 197.3 682 198C682 198.6 681.5 199.2 680.8 199.2C680.1 199.2 679.6 198.7 679.6 198Z" fill="#231F20"/>
<path d="M623.8 198C623.8 195.1 626.2 192.7 629.1 192.7C632 192.7 634.4 195.1 634.4 198C634.4 200.9 632 203.3 629.1 203.3C626.2 203.3 623.8 201 623.8 198Z" fill="#231F20"/>
<path d="M570.1 198C570.1 193.9 573.4 190.6 577.5 190.6C581.6 190.6 584.9 193.9 584.9 198C584.9 202.1 581.6 205.4 577.5 205.4C573.4 205.5 570.1 202.1 570.1 198Z" fill="#231F20"/>
<path d="M519.5 198C519.5 194.5 522.3 191.7 525.8 191.7C529.3 191.7 532.1 194.5 532.1 198C532.1 201.5 529.3 204.3 525.8 204.3C522.4 204.3 519.5 201.5 519.5 198Z" fill="#231F20"/>
<path d="M464.5 198C464.5 192.6 468.9 188.3 474.2 188.3C479.6 188.3 483.9 192.7 483.9 198C483.9 203.4 479.5 207.7 474.2 207.7C468.9 207.8 464.5 203.4 464.5 198Z" fill="#231F20"/>
<path d="M417.2 198C417.2 195 419.6 192.6 422.6 192.6C425.6 192.6 428 195 428 198C428 201 425.6 203.4 422.6 203.4C419.6 203.4 417.2 201 417.2 198Z" fill="#231F20"/>
<path d="M366.6 198C366.6 195.6 368.5 193.7 370.9 193.7C373.3 193.7 375.2 195.6 375.2 198C375.2 200.4 373.3 202.3 370.9 202.3C368.6 202.3 366.6 200.4 366.6 198Z" fill="#231F20"/>
<path d="M313.1 198C313.1 194.5 315.9 191.7 319.4 191.7C322.9 191.7 325.7 194.5 325.7 198C325.7 201.5 322.9 204.3 319.4 204.3C315.9 204.3 313.1 201.5 313.1 198Z" fill="#231F20"/>
<path d="M260.7 198C260.7 194.1 263.8 191 267.7 191C271.6 191 274.7 194.1 274.7 198C274.7 201.9 271.6 205 267.7 205C263.8 205 260.7 201.9 260.7 198Z" fill="#231F20"/>
<path d="M207.2 198C207.2 193.1 211.2 189.2 216 189.2C220.9 189.2 224.8 193.2 224.8 198C224.8 202.9 220.8 206.8 216 206.8C211.2 206.8 207.2 202.9 207.2 198Z" fill="#231F20"/>
<path d="M162.1 198C162.1 196.7 163.1 195.7 164.4 195.7C165.7 195.7 166.7 196.7 166.7 198C166.7 199.3 165.7 200.3 164.4 200.3C163.1 200.3 162.1 199.3 162.1 198Z" fill="#231F20"/>
<path d="M104.4 198C104.4 193.4 108.1 189.6 112.8 189.6C117.4 189.6 121.2 193.3 121.2 198C121.2 202.6 117.5 206.4 112.8 206.4C108.2 206.4 104.4 202.6 104.4 198Z" fill="#231F20"/>
<path d="M51.5001 198C51.5001 192.7 55.8001 188.4 61.1001 188.4C66.4001 188.4 70.7001 192.7 70.7001 198C70.7001 203.3 66.4001 207.6 61.1001 207.6C55.8001 207.7 51.5001 203.3 51.5001 198Z" fill="#231F20"/>
<path d="M0.400101 198C0.400101 192.9 4.5001 188.8 9.6001 188.8C14.7001 188.8 18.8001 192.9 18.8001 198C18.8001 203.1 14.7001 207.2 9.6001 207.2C4.5001 207.2 0.400101 203.1 0.400101 198Z" fill="#231F20"/>
<path d="M1400 135.3C1400 133.3 1401.6 131.7 1403.6 131.7C1405.6 131.7 1407.2 133.3 1407.2 135.3C1407.2 137.3 1405.6 138.9 1403.6 138.9C1401.7 138.9 1400 137.2 1400 135.3Z" fill="#231F20"/>
<path d="M1347.4 135.3C1347.4 132.8 1349.4 130.7 1352 130.7C1354.5 130.7 1356.6 132.8 1356.6 135.3C1356.6 137.8 1354.6 139.9 1352 139.9C1349.5 139.8 1347.4 137.8 1347.4 135.3Z" fill="#231F20"/>
<path d="M1294.9 135.3C1294.9 132.3 1297.4 129.8 1300.4 129.8C1303.4 129.8 1305.9 132.3 1305.9 135.3C1305.9 138.3 1303.4 140.8 1300.4 140.8C1297.3 140.7 1294.9 138.3 1294.9 135.3Z" fill="#231F20"/>
<path d="M1245.4 135.3C1245.4 133.4 1246.9 131.9 1248.8 131.9C1250.7 131.9 1252.2 133.4 1252.2 135.3C1252.2 137.2 1250.7 138.7 1248.8 138.7C1246.9 138.6 1245.4 137.1 1245.4 135.3Z" fill="#231F20"/>
<path d="M1189.8 135.3C1189.8 131.2 1193.1 128 1197.1 128C1201.2 128 1204.4 131.3 1204.4 135.3C1204.4 139.4 1201.1 142.6 1197.1 142.6C1193.1 142.6 1189.8 139.3 1189.8 135.3Z" fill="#231F20"/>
<path d="M1138 135.3C1138 131.2 1141.4 127.8 1145.5 127.8C1149.6 127.8 1153 131.2 1153 135.3C1153 139.4 1149.6 142.8 1145.5 142.8C1141.3 142.7 1138 139.4 1138 135.3Z" fill="#231F20"/>
<path d="M1091.9 135.3C1091.9 134.3 1092.8 133.4 1093.8 133.4C1094.9 133.4 1095.7 134.3 1095.7 135.3C1095.7 136.3 1094.9 137.2 1093.8 137.2C1092.8 137.1 1091.9 136.3 1091.9 135.3Z" fill="#231F20"/>
<path d="M1037.8 135.3C1037.8 132.9 1039.8 130.9 1042.2 130.9C1044.6 130.9 1046.6 132.9 1046.6 135.3C1046.6 137.7 1044.6 139.7 1042.2 139.7C1039.8 139.6 1037.8 137.7 1037.8 135.3Z" fill="#231F20"/>
<path d="M984 135.3C984 131.7 986.9 128.7 990.6 128.7C994.2 128.7 997.2 131.6 997.2 135.3C997.2 138.9 994.3 141.9 990.6 141.9C986.9 141.8 984 138.9 984 135.3Z" fill="#231F20"/>
<path d="M930.5 135.3C930.5 130.7 934.3 126.9 938.9 126.9C943.5 126.9 947.3 130.7 947.3 135.3C947.3 139.9 943.6 143.7 938.9 143.7C934.3 143.6 930.5 139.9 930.5 135.3Z" fill="#231F20"/>
<path d="M881.7 135.3C881.7 132.2 884.2 129.7 887.3 129.7C890.4 129.7 892.9 132.2 892.9 135.3C892.9 138.4 890.4 140.9 887.3 140.9C884.2 140.9 881.7 138.4 881.7 135.3Z" fill="#231F20"/>
<path d="M827.2 135.3C827.2 130.6 831 126.8 835.7 126.8C840.4 126.8 844.2 130.6 844.2 135.3C844.2 140 840.4 143.8 835.7 143.8C831 143.7 827.2 139.9 827.2 135.3Z" fill="#231F20"/>
<path d="M780.3 135.3C780.3 133.2 782 131.5 784.1 131.5C786.2 131.5 787.9 133.2 787.9 135.3C787.9 137.4 786.2 139.1 784.1 139.1C782 139 780.3 137.3 780.3 135.3Z" fill="#231F20"/>
<path d="M727.6 135.3C727.6 132.6 729.8 130.5 732.4 130.5C735.1 130.5 737.2 132.7 737.2 135.3C737.2 138 735 140.1 732.4 140.1C729.7 140.1 727.6 137.9 727.6 135.3Z" fill="#231F20"/>
<path d="M675.1 135.3C675.1 132.2 677.6 129.6 680.8 129.6C683.9 129.6 686.5 132.1 686.5 135.3C686.5 138.4 684 141 680.8 141C677.6 140.9 675.1 138.4 675.1 135.3Z" fill="#231F20"/>
<path d="M625.5 135.3C625.5 133.3 627.1 131.7 629.1 131.7C631.1 131.7 632.7 133.3 632.7 135.3C632.7 137.3 631.1 138.9 629.1 138.9C627.1 138.9 625.5 137.2 625.5 135.3Z" fill="#231F20"/>
<path d="M571.5 135.3C571.5 132 574.2 129.3 577.5 129.3C580.8 129.3 583.5 132 583.5 135.3C583.5 138.6 580.8 141.3 577.5 141.3C574.2 141.3 571.5 138.6 571.5 135.3Z" fill="#231F20"/>
<path d="M516.1 135.3C516.1 129.9 520.5 125.5 525.9 125.5C531.3 125.5 535.7 129.9 535.7 135.3C535.7 140.7 531.3 145.1 525.9 145.1C520.4 145.1 516.1 140.7 516.1 135.3Z" fill="#231F20"/>
<path d="M468.3 135.3C468.3 132 470.9 129.4 474.2 129.4C477.5 129.4 480.1 132 480.1 135.3C480.1 138.6 477.5 141.2 474.2 141.2C471 141.2 468.3 138.5 468.3 135.3Z" fill="#231F20"/>
<path d="M417.6 135.3C417.6 132.5 419.8 130.3 422.6 130.3C425.4 130.3 427.6 132.5 427.6 135.3C427.6 138.1 425.4 140.3 422.6 140.3C419.8 140.3 417.6 138 417.6 135.3Z" fill="#231F20"/>
<path d="M367.8 135.3C367.8 133.6 369.2 132.2 370.9 132.2C372.6 132.2 374 133.6 374 135.3C374 137 372.6 138.4 370.9 138.4C369.2 138.4 367.8 137 367.8 135.3Z" fill="#231F20"/>
<path d="M315.6 135.3C315.6 133.2 317.3 131.6 319.3 131.6C321.4 131.6 323 133.3 323 135.3C323 137.4 321.3 139 319.3 139C317.3 139 315.6 137.3 315.6 135.3Z" fill="#231F20"/>
<path d="M262.4 135.3C262.4 132.4 264.8 130 267.7 130C270.6 130 273 132.4 273 135.3C273 138.2 270.6 140.6 267.7 140.6C264.8 140.5 262.4 138.2 262.4 135.3Z" fill="#231F20"/>
<path d="M207.9 135.3C207.9 130.8 211.6 127.1 216.1 127.1C220.6 127.1 224.3 130.8 224.3 135.3C224.3 139.8 220.6 143.5 216.1 143.5C211.6 143.4 207.9 139.8 207.9 135.3Z" fill="#231F20"/>
<path d="M155.9 135.3C155.9 130.6 159.7 126.8 164.4 126.8C169.1 126.8 172.9 130.6 172.9 135.3C172.9 140 169.1 143.8 164.4 143.8C159.7 143.7 155.9 139.9 155.9 135.3Z" fill="#231F20"/>
<path d="M103.1 135.3C103.1 130 107.4 125.6 112.8 125.6C118.1 125.6 122.5 129.9 122.5 135.3C122.5 140.6 118.2 145 112.8 145C107.4 144.9 103.1 140.6 103.1 135.3Z" fill="#231F20"/>
<path d="M56.0001 135.3C56.0001 132.5 58.3001 130.2 61.1001 130.2C63.9001 130.2 66.2001 132.5 66.2001 135.3C66.2001 138.1 63.9001 140.4 61.1001 140.4C58.3001 140.4 56.0001 138.1 56.0001 135.3Z" fill="#231F20"/>
<path d="M4.80011 135.3C4.80011 132.7 6.90011 130.6 9.50011 130.6C12.1001 130.6 14.2001 132.7 14.2001 135.3C14.2001 137.9 12.1001 140 9.50011 140C6.90011 139.9 4.80011 137.8 4.80011 135.3Z" fill="#231F20"/>
<path d="M1394.2 72.5001C1394.2 67.3001 1398.4 63.1001 1403.6 63.1001C1408.8 63.1001 1413 67.3001 1413 72.5001C1413 77.7001 1408.8 81.9001 1403.6 81.9001C1398.4 81.9001 1394.2 77.7001 1394.2 72.5001Z" fill="#231F20"/>
<path d="M1348 72.5C1348 70.3 1349.8 68.5 1352 68.5C1354.2 68.5 1356 70.3 1356 72.5C1356 74.7 1354.2 76.5 1352 76.5C1349.8 76.5 1348 74.7 1348 72.5Z" fill="#231F20"/>
<path d="M1296.9 72.5001C1296.9 70.6001 1298.4 69.1001 1300.3 69.1001C1302.2 69.1001 1303.7 70.6001 1303.7 72.5001C1303.7 74.4001 1302.2 75.9001 1300.3 75.9001C1298.5 75.9001 1296.9 74.4001 1296.9 72.5001Z" fill="#231F20"/>
<path d="M1246.6 72.4999C1246.6 71.2999 1247.6 70.3999 1248.7 70.3999C1249.9 70.3999 1250.8 71.3999 1250.8 72.4999C1250.8 73.6999 1249.8 74.5999 1248.7 74.5999C1247.6 74.5999 1246.6 73.6999 1246.6 72.4999Z" fill="#231F20"/>
<path d="M1188.3 72.5002C1188.3 67.7002 1192.2 63.7002 1197.1 63.7002C1201.9 63.7002 1205.9 67.6002 1205.9 72.5002C1205.9 77.3002 1202 81.3002 1197.1 81.3002C1192.2 81.3002 1188.3 77.3002 1188.3 72.5002Z" fill="#231F20"/>
<path d="M1139.6 72.5001C1139.6 69.3001 1142.2 66.6001 1145.5 66.6001C1148.7 66.6001 1151.4 69.2001 1151.4 72.5001C1151.4 75.7001 1148.8 78.4001 1145.5 78.4001C1142.2 78.4001 1139.6 75.7001 1139.6 72.5001Z" fill="#231F20"/>
<path d="M1087.9 72.5001C1087.9 69.2001 1090.6 66.6001 1093.8 66.6001C1097.1 66.6001 1099.7 69.3001 1099.7 72.5001C1099.7 75.8001 1097.1 78.4001 1093.8 78.4001C1090.6 78.4001 1087.9 75.8001 1087.9 72.5001Z" fill="#231F20"/>
<path d="M1034.4 72.5001C1034.4 68.2001 1037.9 64.6001 1042.3 64.6001C1046.6 64.6001 1050.2 68.1001 1050.2 72.5001C1050.2 76.8001 1046.7 80.4001 1042.3 80.4001C1037.9 80.3001 1034.4 76.8001 1034.4 72.5001Z" fill="#231F20"/>
<path d="M982.9 72.5003C982.9 68.3003 986.3 64.8003 990.6 64.8003C994.8 64.8003 998.3 68.2003 998.3 72.5003C998.3 76.7003 994.9 80.2003 990.6 80.2003C986.3 80.2003 982.9 76.7003 982.9 72.5003Z" fill="#231F20"/>
<path d="M932.9 72.4999C932.9 69.1999 935.6 66.3999 938.9 66.3999C942.3 66.3999 945 69.0999 945 72.4999C945 75.7999 942.3 78.5999 938.9 78.5999C935.6 78.4999 932.9 75.7999 932.9 72.4999Z" fill="#231F20"/>
<path d="M884.8 72.5C884.8 71.1 885.9 70 887.3 70C888.7 70 889.8 71.1 889.8 72.5C889.8 73.9 888.7 75 887.3 75C885.9 75 884.8 73.9 884.8 72.5Z" fill="#231F20"/>
<path d="M829.5 72.5003C829.5 69.1003 832.3 66.3003 835.7 66.3003C839.1 66.3003 841.9 69.1003 841.9 72.5003C841.9 75.9003 839.1 78.7003 835.7 78.7003C832.3 78.7003 829.5 75.9003 829.5 72.5003Z" fill="#231F20"/>
<path d="M782 72.4999C782 71.3999 782.9 70.3999 784.1 70.3999C785.2 70.3999 786.2 71.2999 786.2 72.4999C786.2 73.5999 785.3 74.5999 784.1 74.5999C782.9 74.4999 782 73.5999 782 72.4999Z" fill="#231F20"/>
<path d="M729.9 72.5C729.9 71.1 731 70 732.4 70C733.8 70 734.9 71.1 734.9 72.5C734.9 73.9 733.8 75 732.4 75C731 75 729.9 73.9 729.9 72.5Z" fill="#231F20"/>
<path d="M674.2 72.5C674.2 68.9 677.1 66 680.7 66C684.3 66 687.2 68.9 687.2 72.5C687.2 76.1 684.3 79 680.7 79C677.2 79 674.2 76.1 674.2 72.5Z" fill="#231F20"/>
<path d="M624.8 72.5002C624.8 70.1002 626.7 68.2002 629.1 68.2002C631.5 68.2002 633.4 70.1002 633.4 72.5002C633.4 74.9002 631.5 76.8002 629.1 76.8002C626.8 76.8002 624.8 74.9002 624.8 72.5002Z" fill="#231F20"/>
<path d="M576.3 72.5003C576.3 71.8003 576.8 71.3003 577.5 71.3003C578.2 71.3003 578.7 71.8003 578.7 72.5003C578.7 73.2003 578.2 73.7003 577.5 73.7003C576.8 73.7003 576.3 73.2003 576.3 72.5003Z" fill="#231F20"/>
<path d="M520.5 72.5002C520.5 69.5002 522.9 67.2002 525.8 67.2002C528.8 67.2002 531.1 69.6002 531.1 72.5002C531.1 75.5002 528.7 77.8002 525.8 77.8002C522.9 77.8002 520.5 75.4002 520.5 72.5002Z" fill="#231F20"/>
<path d="M467.9 72.5001C467.9 69.0001 470.8 66.1001 474.3 66.1001C477.8 66.1001 480.7 69.0001 480.7 72.5001C480.7 76.0001 477.8 78.9001 474.3 78.9001C470.7 78.9001 467.9 76.0001 467.9 72.5001Z" fill="#231F20"/>
<path d="M416.9 72.5003C416.9 69.4003 419.5 66.8003 422.6 66.8003C425.7 66.8003 428.3 69.4003 428.3 72.5003C428.3 75.6003 425.7 78.2003 422.6 78.2003C419.4 78.2003 416.9 75.6003 416.9 72.5003Z" fill="#231F20"/>
<path d="M364 72.5001C364 68.7001 367.1 65.6001 370.9 65.6001C374.7 65.6001 377.8 68.7001 377.8 72.5001C377.8 76.3001 374.7 79.4001 370.9 79.4001C367.1 79.4001 364 76.3001 364 72.5001Z" fill="#231F20"/>
<path d="M316.5 72.5002C316.5 70.9002 317.8 69.7002 319.3 69.7002C320.9 69.7002 322.1 71.0002 322.1 72.5002C322.1 74.1002 320.8 75.3002 319.3 75.3002C317.8 75.3002 316.5 74.1002 316.5 72.5002Z" fill="#231F20"/>
<path d="M266.1 72.4999C266.1 71.5999 266.8 70.8999 267.7 70.8999C268.6 70.8999 269.3 71.5999 269.3 72.4999C269.3 73.3999 268.6 74.0999 267.7 74.0999C266.8 74.0999 266.1 73.3999 266.1 72.4999Z" fill="#231F20"/>
<path d="M208.4 72.5003C208.4 68.3003 211.8 64.8003 216.1 64.8003C220.3 64.8003 223.8 68.2003 223.8 72.5003C223.8 76.7003 220.4 80.2003 216.1 80.2003C211.8 80.1003 208.4 76.7003 208.4 72.5003Z" fill="#231F20"/>
<path d="M161.5 72.5001C161.5 70.9001 162.8 69.6001 164.4 69.6001C166 69.6001 167.3 70.9001 167.3 72.5001C167.3 74.1001 166 75.4001 164.4 75.4001C162.8 75.4001 161.5 74.1001 161.5 72.5001Z" fill="#231F20"/>
<path d="M110.3 72.5C110.3 71.1 111.4 70 112.8 70C114.2 70 115.3 71.1 115.3 72.5C115.3 73.9 114.2 75 112.8 75C111.4 75 110.3 73.9 110.3 72.5Z" fill="#231F20"/>
<path d="M54.3001 72.5001C54.3001 68.7001 57.4001 65.6001 61.2001 65.6001C65.0001 65.6001 68.1001 68.7001 68.1001 72.5001C68.1001 76.3001 65.0001 79.4001 61.2001 79.4001C57.4001 79.3001 54.3001 76.3001 54.3001 72.5001Z" fill="#231F20"/>
<path d="M2.2001 72.5002C2.2001 68.5002 5.50011 65.2002 9.50011 65.2002C13.5001 65.2002 16.8001 68.5002 16.8001 72.5002C16.8001 76.5002 13.5001 79.8002 9.50011 79.8002C5.50011 79.8002 2.2001 76.5002 2.2001 72.5002Z" fill="#231F20"/>
<path d="M1399.5 9.70009C1399.5 7.40009 1401.4 5.6001 1403.6 5.6001C1405.9 5.6001 1407.7 7.50009 1407.7 9.70009C1407.7 12.0001 1405.8 13.8001 1403.6 13.8001C1401.4 13.9001 1399.5 12.0001 1399.5 9.70009Z" fill="#231F20"/>
<path d="M1343.9 9.70009C1343.9 5.20009 1347.5 1.6001 1352 1.6001C1356.5 1.6001 1360.1 5.20009 1360.1 9.70009C1360.1 14.2001 1356.5 17.8001 1352 17.8001C1347.5 17.9001 1343.9 14.2001 1343.9 9.70009Z" fill="#231F20"/>
<path d="M1296.9 9.7002C1296.9 7.8002 1298.5 6.2002 1300.4 6.2002C1302.3 6.2002 1303.9 7.8002 1303.9 9.7002C1303.9 11.6002 1302.3 13.2002 1300.4 13.2002C1298.5 13.2002 1296.9 11.6002 1296.9 9.7002Z" fill="#231F20"/>
<path d="M1246.3 9.70029C1246.3 8.40029 1247.4 7.30029 1248.7 7.30029C1250 7.30029 1251.1 8.40029 1251.1 9.70029C1251.1 11.0003 1250 12.1003 1248.7 12.1003C1247.4 12.1003 1246.3 11.0003 1246.3 9.70029Z" fill="#231F20"/>
<path d="M1193.8 9.69989C1193.8 7.89989 1195.3 6.3999 1197.1 6.3999C1198.9 6.3999 1200.4 7.89989 1200.4 9.69989C1200.4 11.4999 1198.9 12.9999 1197.1 12.9999C1195.3 13.0999 1193.8 11.5999 1193.8 9.69989Z" fill="#231F20"/>
<path d="M1140 9.7002C1140 6.7002 1142.5 4.2002 1145.5 4.2002C1148.5 4.2002 1151 6.7002 1151 9.7002C1151 12.7002 1148.5 15.2002 1145.5 15.2002C1142.4 15.2002 1140 12.8002 1140 9.7002Z" fill="#231F20"/>
<path d="M1087 9.69989C1087 5.89989 1090 2.8999 1093.8 2.8999C1097.6 2.8999 1100.6 5.89989 1100.6 9.69989C1100.6 13.4999 1097.6 16.4999 1093.8 16.4999C1090.1 16.4999 1087 13.4999 1087 9.69989Z" fill="#231F20"/>
<path d="M1038.7 9.7002C1038.7 7.8002 1040.3 6.2002 1042.2 6.2002C1044.1 6.2002 1045.7 7.8002 1045.7 9.7002C1045.7 11.6002 1044.1 13.2002 1042.2 13.2002C1040.3 13.2002 1038.7 11.6002 1038.7 9.7002Z" fill="#231F20"/>
<path d="M984.1 9.7002C984.1 6.1002 987 3.2002 990.6 3.2002C994.2 3.2002 997.1 6.1002 997.1 9.7002C997.1 13.3002 994.2 16.2002 990.6 16.2002C987 16.2002 984.1 13.3002 984.1 9.7002Z" fill="#231F20"/>
<path d="M933.5 9.7002C933.5 6.7002 935.9 4.2002 938.9 4.2002C941.9 4.2002 944.4 6.6002 944.4 9.7002C944.4 12.7002 942 15.2002 938.9 15.2002C935.9 15.2002 933.5 12.7002 933.5 9.7002Z" fill="#231F20"/>
<path d="M879.4 9.70029C879.4 5.40029 882.9 1.80029 887.3 1.80029C891.6 1.80029 895.2 5.30029 895.2 9.70029C895.2 14.0003 891.7 17.6003 887.3 17.6003C883 17.6003 879.4 14.1003 879.4 9.70029Z" fill="#231F20"/>
<path d="M831.2 9.7002C831.2 7.2002 833.2 5.2002 835.6 5.2002C838.1 5.2002 840.1 7.2002 840.1 9.7002C840.1 12.2002 838.1 14.2002 835.6 14.2002C833.2 14.2002 831.2 12.2002 831.2 9.7002Z" fill="#231F20"/>
<path d="M779.4 9.70009C779.4 7.20009 781.5 5.1001 784 5.1001C786.5 5.1001 788.6 7.20009 788.6 9.70009C788.6 12.2001 786.5 14.3001 784 14.3001C781.5 14.3001 779.4 12.3001 779.4 9.70009Z" fill="#231F20"/>
<path d="M731 9.70029C731 8.90029 731.6 8.30029 732.4 8.30029C733.2 8.30029 733.8 8.90029 733.8 9.70029C733.8 10.5003 733.2 11.1003 732.4 11.1003C731.6 11.1003 731 10.5003 731 9.70029Z" fill="#231F20"/>
<path d="M673.5 9.69989C673.5 5.69989 676.7 2.3999 680.8 2.3999C684.8 2.3999 688.1 5.69989 688.1 9.69989C688.1 13.6999 684.9 16.9999 680.8 16.9999C676.8 16.9999 673.5 13.6999 673.5 9.69989Z" fill="#231F20"/>
<path d="M621 9.70009C621 5.20009 624.6 1.6001 629.1 1.6001C633.6 1.6001 637.2 5.20009 637.2 9.70009C637.2 14.2001 633.6 17.8001 629.1 17.8001C624.7 17.8001 621 14.2001 621 9.70009Z" fill="#231F20"/>
<path d="M576.1 9.70029C576.1 8.90029 576.7 8.30029 577.5 8.30029C578.3 8.30029 578.9 8.90029 578.9 9.70029C578.9 10.5003 578.3 11.1003 577.5 11.1003C576.7 11.1003 576.1 10.5003 576.1 9.70029Z" fill="#231F20"/>
<path d="M520.5 9.69989C520.5 6.79989 522.9 4.3999 525.8 4.3999C528.7 4.3999 531.1 6.79989 531.1 9.69989C531.1 12.5999 528.7 14.9999 525.8 14.9999C522.9 15.0999 520.5 12.6999 520.5 9.69989Z" fill="#231F20"/>
<path d="M467.7 9.7002C467.7 6.1002 470.6 3.2002 474.2 3.2002C477.8 3.2002 480.7 6.1002 480.7 9.7002C480.7 13.3002 477.8 16.2002 474.2 16.2002C470.7 16.2002 467.7 13.3002 467.7 9.7002Z" fill="#231F20"/>
<path d="M416.8 9.69989C416.8 6.49989 419.4 3.8999 422.6 3.8999C425.8 3.8999 428.4 6.49989 428.4 9.69989C428.4 12.8999 425.8 15.4999 422.6 15.4999C419.4 15.5999 416.8 12.8999 416.8 9.69989Z" fill="#231F20"/>
<path d="M361.4 9.70009C361.4 4.40009 365.7 0.100098 371 0.100098C376.3 0.100098 380.6 4.40009 380.6 9.70009C380.6 15.0001 376.3 19.3001 371 19.3001C365.7 19.3001 361.4 15.0001 361.4 9.70009Z" fill="#231F20"/>
<path d="M311 9.69989C311 5.09989 314.7 1.3999 319.3 1.3999C323.9 1.3999 327.6 5.09989 327.6 9.69989C327.6 14.2999 323.9 17.9999 319.3 17.9999C314.7 17.9999 311 14.2999 311 9.69989Z" fill="#231F20"/>
<path d="M265.6 9.70009C265.6 8.50009 266.5 7.6001 267.7 7.6001C268.9 7.6001 269.8 8.50009 269.8 9.70009C269.8 10.9001 268.9 11.8001 267.7 11.8001C266.5 11.8001 265.6 10.9001 265.6 9.70009Z" fill="#231F20"/>
<path d="M207.2 9.70029C207.2 4.80029 211.2 0.800293 216.1 0.800293C221 0.800293 225 4.80029 225 9.70029C225 14.6003 221 18.6003 216.1 18.6003C211.1 18.6003 207.2 14.6003 207.2 9.70029Z" fill="#231F20"/>
<path d="M157.5 9.70029C157.5 5.90029 160.6 2.80029 164.4 2.80029C168.2 2.80029 171.3 5.90029 171.3 9.70029C171.3 13.5003 168.2 16.6003 164.4 16.6003C160.6 16.6003 157.5 13.5003 157.5 9.70029Z" fill="#231F20"/>
<path d="M110.1 9.7C110.1 8.2 111.3 7 112.8 7C114.3 7 115.5 8.2 115.5 9.7C115.5 11.2 114.3 12.4 112.8 12.4C111.3 12.4 110.1 11.2 110.1 9.7Z" fill="#231F20"/>
<path d="M58.5001 9.70009C58.5001 8.30009 59.7001 7.1001 61.1001 7.1001C62.5001 7.1001 63.7001 8.30009 63.7001 9.70009C63.7001 11.1001 62.5001 12.3001 61.1001 12.3001C59.7001 12.3001 58.5001 11.2001 58.5001 9.70009Z" fill="#231F20"/>
<path d="M6.80011 9.7C6.80011 8.2 8.00011 7 9.50011 7C11.0001 7 12.2001 8.2 12.2001 9.7C12.2001 11.2 11.0001 12.4 9.50011 12.4C8.00011 12.4 6.80011 11.2 6.80011 9.7Z" fill="#231F20"/>
</svg>
